<svg xmlns="http://www.w3.org/2000/svg" width="512" height="512" viewBox="0 0 512 512" version="1.1"><path d="M 239.609 77.824 C 239.328 78.278, 242.564 81.990, 246.800 86.074 L 254.500 93.500 247.220 85.946 C 243.216 81.792, 240.254 78.080, 240.637 77.696 C 241.020 77.313, 241.060 77, 240.726 77 C 240.391 77, 239.889 77.371, 239.609 77.824 M 163.734 84.774 C 162.311 86.375, 166.605 89.607, 223.163 129.500 C 256.693 153.150, 284.885 173.215, 285.813 174.089 C 287.366 175.551, 287.677 175.438, 289.731 172.670 C 291.818 169.857, 291.850 169.585, 290.231 168.466 C 283.231 163.631, 166.884 84.046, 166.172 83.607 C 165.675 83.299, 164.577 83.824, 163.734 84.774 M 358 90.500 C 355.571 92.975, 353.809 95, 354.084 95 C 354.359 95, 356.571 92.975, 359 90.500 C 361.429 88.025, 363.191 86, 362.916 86 C 362.641 86, 360.429 88.025, 358 90.500 M 293.500 97 C 297.320 100.850, 300.671 104, 300.946 104 C 301.221 104, 298.320 100.850, 294.500 97 C 290.680 93.150, 287.329 90, 287.054 90 C 286.779 90, 289.680 93.150, 293.500 97 M 410.232 94 C 410.232 95.925, 410.438 96.713, 410.689 95.750 C 410.941 94.787, 410.941 93.213, 410.689 92.250 C 410.438 91.287, 410.232 92.075, 410.232 94 M 395.453 127.250 L 391.500 131.500 395.750 127.547 C 398.087 125.373, 400 123.460, 400 123.297 C 400 122.540, 399.129 123.298, 395.453 127.250 M 381.111 185.250 C 381.355 185.387, 384.917 188.650, 389.027 192.500 L 396.500 199.500 389.527 192.250 C 385.692 188.262, 382.129 185, 381.610 185 C 381.091 185, 380.866 185.113, 381.111 185.250 M 312.925 196.333 C 311.116 197.928, 310.670 198.906, 311.425 199.619 C 312.016 200.178, 332.075 228.354, 356 262.233 L 399.500 323.830 403.750 319.707 C 406.087 317.439, 408 315.220, 408 314.776 C 408 314.332, 406.762 315.345, 405.250 317.028 L 402.500 320.087 359.500 257.079 C 335.850 222.424, 316.275 194.068, 316 194.067 C 315.725 194.065, 314.341 195.085, 312.925 196.333 M 393.158 230.309 C 392.323 231.316, 393.883 233.419, 399.913 239.413 C 405.658 245.125, 407.963 246.846, 408.537 245.854 C 408.968 245.109, 408.935 244.851, 408.464 245.280 C 407.993 245.709, 404.336 242.811, 400.339 238.840 C 394.751 233.290, 393.322 231.317, 394.158 230.310 C 394.756 229.590, 395.020 229, 394.745 229 C 394.470 229, 393.756 229.589, 393.158 230.309 M 170.757 245.750 C 169.311 247.380, 170.451 248.375, 187.352 260.229 C 197.333 267.230, 205.944 273.080, 206.486 273.229 C 207.029 273.378, 207.612 272.777, 207.782 271.893 C 207.995 270.786, 202.495 266.434, 190.125 257.920 C 180.243 251.118, 172.374 245.204, 172.638 244.777 C 173.512 243.362, 172.336 243.971, 170.757 245.750 M 233.552 264.942 C 232.586 266.010, 232.030 267.473, 232.318 268.192 C 232.722 269.199, 232.860 269.173, 232.921 268.079 C 232.964 267.297, 233.745 265.835, 234.655 264.829 C 235.565 263.823, 236.085 263, 235.810 263 C 235.535 263, 234.519 263.874, 233.552 264.942 M 213.214 278.186 C 212.406 278.994, 213.271 280.936, 216.427 285.396 C 218.802 288.753, 224.789 297.231, 229.732 304.234 L 238.718 316.969 240.609 314.813 C 241.649 313.627, 242.038 312.923, 241.473 313.249 C 240.908 313.575, 234.890 305.770, 228.100 295.904 C 221.309 286.038, 215.431 277.766, 215.037 277.523 C 214.643 277.279, 213.822 277.578, 213.214 278.186 M 185.453 296.250 L 181.500 300.500 185.750 296.547 C 189.702 292.871, 190.460 292, 189.703 292 C 189.540 292, 187.627 293.913, 185.453 296.250 M 172.224 311.550 C 173.900 313.543, 173.732 313.814, 166.031 321.469 C 158.897 328.561, 157.935 329.205, 156.307 327.975 C 154.576 326.667, 154.574 326.691, 156.264 328.533 C 157.985 330.409, 158.240 330.245, 166.560 321.925 L 175.092 313.393 172.796 311.447 C 170.500 309.500, 170.500 309.500, 172.224 311.550 M 422.250 352.519 C 423.972 354.398, 424.028 354.398, 425.750 352.519 C 427.417 350.700, 427.417 350.672, 425.750 351.927 C 424.302 353.017, 423.698 353.017, 422.250 351.927 C 420.583 350.672, 420.583 350.700, 422.250 352.519 M 351.336 369 C 351.489 371.334, 351.866 371.505, 357 371.575 L 362.500 371.649 357.313 371.277 C 352.931 370.962, 352.052 370.562, 351.649 368.702 C 351.247 366.845, 351.198 366.891, 351.336 369 M 369.762 367.707 C 371.006 367.946, 372.806 367.937, 373.762 367.687 C 374.718 367.437, 373.700 367.241, 371.500 367.252 C 369.300 367.263, 368.518 367.468, 369.762 367.707 M 130.286 383.500 C 130.294 386.250, 130.488 387.256, 130.718 385.736 C 130.947 384.216, 130.941 381.966, 130.704 380.736 C 130.467 379.506, 130.279 380.750, 130.286 383.500 M 281.958 390.550 C 280.890 391.838, 280.987 392.388, 282.531 393.800 C 284.287 395.405, 284.317 395.402, 283.073 393.750 C 282.018 392.350, 282.004 391.700, 283 390.500 C 283.685 389.675, 284.020 389, 283.745 389 C 283.470 389, 282.666 389.698, 281.958 390.550 M 259.966 413.750 L 254.500 419.500 260.250 414.034 C 265.592 408.956, 266.458 408, 265.716 408 C 265.560 408, 262.972 410.587, 259.966 413.750 M 268.437 411.250 L 265.500 414.500 268.750 411.563 C 271.779 408.825, 272.460 408, 271.687 408 C 271.515 408, 270.052 409.462, 268.437 411.250 M 191.250 454.689 C 192.213 454.941, 193.787 454.941, 194.750 454.689 C 195.713 454.438, 194.925 454.232, 193 454.232 C 191.075 454.232, 190.287 454.438, 191.250 454.689" stroke="none" fill="#c8cacc" fill-rule="evenodd"/><path d="M 389 76 C 387.575 76.456, 387.199 76.844, 388.125 76.900 C 389.019 76.955, 391.156 77.281, 392.875 77.625 C 395.349 78.120, 396 77.912, 396 76.625 C 396 74.863, 393.303 74.622, 389 76 M 399.662 76.671 C 398.261 78.072, 399.129 80.196, 402.467 83.533 C 407.637 88.703, 411.606 87.996, 408.028 82.543 C 405.938 79.356, 400.673 75.661, 399.662 76.671 M 408.118 91.750 C 408.183 92.713, 408.553 94.850, 408.939 96.500 C 409.584 99.256, 409.676 99.114, 410.078 94.750 C 410.388 91.370, 410.152 90, 409.257 90 C 408.566 90, 408.053 90.787, 408.118 91.750 M 131.465 173.020 C 130.346 173.436, 128.829 174.502, 128.093 175.388 C 126.276 177.577, 124.730 177.425, 125.459 175.129 C 125.996 173.436, 125.668 173.329, 121.987 174.002 C 119.750 174.411, 117.602 175.065, 117.212 175.455 C 116.566 176.100, 119.084 178.520, 121.124 179.214 C 122.310 179.618, 120.642 185.286, 119.195 185.768 C 118.538 185.987, 118 185.454, 118 184.583 C 118 182.294, 115.366 182.639, 113.601 185.159 C 112.417 186.850, 111.113 187.303, 107.587 187.250 C 103.149 187.183, 102.940 187.333, 92.742 197.888 C 76.321 214.885, 65.387 230.229, 54.539 251.500 C 46.918 266.444, 42.915 276.610, 38.428 292.413 L 34.923 304.755 37.072 308.397 C 38.466 310.761, 39.064 313.109, 38.774 315.085 C 38.382 317.758, 38.854 318.492, 42.655 321.106 C 49.902 326.093, 56.858 328.897, 60.510 328.305 C 63.209 327.867, 64.357 328.324, 67.072 330.918 C 68.904 332.669, 72.335 334.559, 74.815 335.184 C 78.129 336.018, 79.681 337.071, 80.884 339.300 C 83.441 344.040, 87.510 348.340, 91.379 350.393 L 94.947 352.287 96.857 349.928 L 98.767 347.569 100.880 351.035 C 104.211 356.499, 103.739 362.431, 99.446 369.034 C 96.677 373.294, 96.018 375.162, 96.463 377.500 C 97.180 381.269, 97.176 381.763, 96.393 385.817 C 95.872 388.519, 96.225 389.631, 98.300 391.817 C 99.700 393.292, 102.757 398.100, 105.093 402.500 C 111.139 413.888, 112.518 415.630, 118.531 419.477 C 121.480 421.363, 124.580 423.955, 125.419 425.237 C 126.391 426.719, 127.325 432.101, 127.988 440.033 C 128.560 446.890, 129.545 456.100, 130.176 460.500 C 130.807 464.900, 131.363 470.975, 131.412 474 L 131.500 479.500 141.690 484.756 C 150.762 489.435, 152.161 489.884, 154.440 488.845 C 156.107 488.086, 157 486.876, 157 485.378 C 157 483.535, 157.806 482.860, 161.051 481.986 C 165.967 480.662, 166.799 478.899, 164.642 474.375 C 163.739 472.482, 163 470.722, 163 470.466 C 163 470.210, 164.770 470, 166.933 470 C 170.144 470, 170.989 469.587, 171.540 467.750 C 171.911 466.512, 173.604 462.800, 175.301 459.500 C 177.130 455.944, 178.613 451.260, 178.943 448 L 179.500 442.500 185.882 439.422 C 189.556 437.650, 192.804 435.314, 193.536 433.916 C 195.236 430.672, 197 420.827, 197 414.586 C 197 410.547, 197.712 408.385, 200.567 403.760 C 205.381 395.962, 205.437 388.905, 200.699 387.407 C 199.489 387.025, 197.140 385.677, 195.478 384.411 C 193.816 383.146, 190.300 381.628, 187.665 381.037 C 185.030 380.446, 181.696 379.184, 180.257 378.232 C 178.818 377.279, 176.034 376.050, 174.070 375.500 C 171.007 374.642, 170.047 373.578, 167.305 368 C 163.400 360.055, 160.100 357, 155.422 357 C 152.741 357, 150.924 356.050, 147.406 352.807 C 142.421 348.211, 142.704 348.130, 138.941 355.250 C 137.028 358.870, 133.888 360.246, 132.535 358.057 C 132.214 357.538, 133.758 354.163, 135.965 350.557 L 139.978 344 133.940 344 C 130.389 344, 126.640 343.348, 124.843 342.419 C 123.161 341.549, 120.755 341.096, 119.497 341.412 C 117.971 341.794, 117.014 341.478, 116.624 340.462 C 116.117 339.143, 115.506 339.212, 112.040 340.979 C 109.841 342.102, 107.327 344.402, 106.453 346.091 C 105.258 348.401, 104.448 348.971, 103.182 348.392 C 102.257 347.968, 99.101 347.594, 96.170 347.561 C 88.873 347.478, 87.626 345.748, 88.468 336.875 C 89.179 329.383, 88.855 329, 81.809 329 L 77.781 329 78.380 325.250 C 80.458 312.244, 80.503 313, 77.656 313 C 75.729 313, 74.615 313.845, 73.372 316.250 C 71.302 320.257, 69.203 321.927, 66.184 321.968 C 58.202 322.078, 54.954 312.846, 58.583 300.363 C 59.864 295.955, 60.912 294.425, 64.087 292.324 C 67.339 290.171, 68.746 289.830, 72.341 290.323 C 75.450 290.749, 77.313 290.469, 78.938 289.331 C 80.612 288.158, 82.504 287.900, 86.207 288.338 C 92.228 289.051, 94 290.342, 94 294.015 C 94 296.583, 95.497 298, 98.211 298 C 98.895 298, 99.033 296.004, 98.609 292.250 C 97.802 285.108, 98.748 283.585, 107.521 277.911 C 113.341 274.148, 114 273.385, 114 270.416 C 114 267.692, 114.877 266.356, 118.988 262.815 C 121.731 260.452, 125.432 258.028, 127.212 257.429 C 129.339 256.712, 130.642 255.510, 131.014 253.920 C 131.579 251.510, 135.886 248.820, 141.389 247.439 C 143.603 246.883, 143.917 247.053, 143.360 248.504 C 142.610 250.457, 144.080 250.175, 151.750 246.891 C 157.108 244.597, 157.232 243.025, 152 243.727 C 148.384 244.212, 148 244.052, 148 242.066 C 148 240.857, 148.484 238.965, 149.075 237.860 C 149.972 236.183, 149.807 235.762, 148.075 235.309 C 145.419 234.615, 145.418 233.319, 148.072 232.477 C 149.356 232.070, 150.811 232.424, 151.900 233.410 C 153.807 235.135, 155.463 235.559, 154.555 234.089 C 154.245 233.587, 155.906 232.859, 158.246 232.470 C 160.586 232.082, 163.738 231.130, 165.250 230.356 C 168.846 228.516, 168.748 230.078, 165 234.347 C 163.350 236.226, 162 238.021, 162 238.335 C 162 239.028, 168.812 240.987, 171.250 240.994 C 173.834 241.003, 173.669 235.347, 171.061 234.519 C 169.229 233.938, 169.204 233.674, 170.606 229.702 C 172.464 224.439, 171.846 221.944, 168.173 219.880 C 165.800 218.546, 165.195 217.424, 164.758 213.543 C 164.040 207.173, 162.914 206.264, 159.170 209.032 C 155.385 211.831, 153 211.066, 153 207.054 C 153 203.477, 150.386 201.515, 144.453 200.639 C 140.763 200.094, 140.256 200.297, 138.696 202.938 C 137.754 204.532, 136.702 208.010, 136.357 210.668 C 135.606 216.462, 133.900 218.650, 128.986 220.122 C 125.918 221.041, 125.146 221.838, 124.399 224.853 C 123.824 227.170, 122.821 228.608, 121.620 228.838 C 119.399 229.262, 117.850 227.217, 118.523 224.750 C 118.785 223.787, 119.255 222.100, 119.567 221 C 119.930 219.722, 119.659 219.005, 118.817 219.014 C 118.093 219.021, 114.275 217.783, 110.333 216.264 C 103.671 213.694, 103.140 213.269, 102.780 210.217 C 102.426 207.204, 102.833 206.642, 107.710 203.404 C 111.741 200.729, 125.900 194, 127.499 194 C 127.622 194, 127.535 195.012, 127.305 196.250 C 127.015 197.810, 127.594 198.933, 129.193 199.911 C 131.231 201.157, 131.355 201.146, 130.259 199.819 C 128.671 197.897, 129.597 197, 133.167 197 C 136.587 197, 136.739 196.084, 133.750 193.500 L 131.500 191.555 135.303 190.926 C 137.921 190.494, 140.012 189.238, 142.012 186.899 C 143.611 185.029, 144.937 183.162, 144.959 182.750 C 145.107 180.020, 158 184.350, 158 187.130 C 158 189.190, 152.423 192.938, 149.309 192.968 C 147.554 192.986, 145.840 193.450, 145.500 194 C 145.143 194.578, 146.098 195, 147.767 195 C 149.524 195, 151.538 195.944, 152.921 197.415 C 155.988 200.681, 159.079 201.283, 163.435 199.463 C 166.871 198.027, 167.042 197.742, 166.428 194.470 C 165.804 191.144, 167.052 189.657, 168.500 192 C 169.867 194.212, 176 192.434, 176 189.826 C 176 189.400, 174.687 188.373, 173.083 187.543 C 171.246 186.593, 169.928 184.949, 169.522 183.102 C 169.041 180.912, 167.928 179.788, 165.132 178.670 C 163.072 177.845, 160.795 176.457, 160.071 175.585 C 159.042 174.346, 156.723 174, 149.433 174 C 141.030 174, 139.836 174.237, 137.315 176.405 L 134.519 178.811 136.500 181 L 138.481 183.189 135.685 185.595 C 132.279 188.524, 131 188.635, 131 186 C 131 184.900, 130.559 184, 130.019 184 C 128.456 184, 127.653 179.123, 128.957 177.551 C 129.607 176.769, 131.457 175.839, 133.069 175.485 C 134.681 175.131, 136 174.475, 136 174.028 C 136 172.719, 133.667 172.201, 131.465 173.020 M 387.986 177.014 C 385.901 179.099, 386.026 179.974, 388.902 183.407 C 390.417 185.215, 390.371 185.277, 388 184.593 C 382.922 183.129, 376.995 182.759, 375.710 183.826 C 374.991 184.422, 372.738 185.022, 370.702 185.159 C 368.666 185.297, 367 185.462, 367 185.526 C 367 185.591, 367.724 187.768, 368.608 190.364 L 370.217 195.085 375.549 190.042 C 378.481 187.269, 381.233 185, 381.665 185 C 382.097 185, 385.472 187.999, 389.166 191.664 C 395.644 198.093, 395.833 198.420, 394.523 200.914 C 392.651 204.478, 382.826 213.370, 377.205 216.588 C 377.042 216.681, 378.539 221.798, 380.531 227.958 L 384.152 239.160 390.002 233.580 C 393.219 230.511, 396.235 228, 396.703 228 C 397.171 228, 400.668 231.138, 404.473 234.973 L 411.393 241.946 408.351 245.723 C 405.411 249.373, 397.980 255.866, 393.108 259.041 L 390.745 260.582 397.167 281.041 L 403.590 301.500 410.209 302 C 416.163 302.450, 417.239 302.881, 420.914 306.290 C 423.161 308.375, 425 310.711, 425 311.481 C 425 313.395, 426.929 314.431, 430.048 314.193 C 432.501 314.006, 432.724 314.377, 433.857 320.529 C 434.952 326.470, 441.671 345.411, 443.943 348.960 C 446.337 352.701, 451 343.467, 451 334.986 C 451 330.963, 451.529 330.153, 459.750 321.602 C 466.758 314.312, 469.344 312.282, 472.740 311.407 C 475.073 310.806, 477.210 310.543, 477.490 310.824 C 478.258 311.592, 478.137 310.725, 476.443 303.312 C 468.778 269.790, 453.626 239.044, 430.904 210.908 C 420.797 198.392, 399.131 177.745, 396.751 178.360 C 395.789 178.609, 394.751 178.407, 394.445 177.911 C 394.139 177.416, 393.024 176.548, 391.967 175.982 C 390.462 175.177, 389.600 175.400, 387.986 177.014 M 303 204.689 C 265.101 237.264, 259.262 242.541, 260.112 243.450 C 261.530 244.966, 261.141 248.716, 259.385 250.473 C 258.179 251.678, 256.721 251.932, 253.635 251.475 C 249.878 250.917, 249.215 251.165, 246.380 254.181 C 241.655 259.207, 240.734 269, 244.986 269 C 245.959 269, 247.315 269.675, 247.999 270.499 C 249.699 272.547, 247.678 277.370, 244.515 278.811 C 243.223 279.400, 241.549 281.146, 240.795 282.691 C 239.539 285.265, 239.741 286.335, 243.212 295.497 C 245.296 300.996, 247 305.775, 247 306.117 C 247 306.459, 245.149 309.063, 242.888 311.904 L 238.775 317.068 233.820 310.034 C 231.094 306.165, 228.454 303, 227.952 303 C 227.451 303, 226.137 304.772, 225.032 306.937 C 223.462 310.014, 223.063 312.582, 223.204 318.687 C 223.303 322.984, 223.032 328.975, 222.601 332 L 221.818 337.500 226.409 342.832 C 228.934 345.764, 231 348.750, 231 349.467 C 231 351.279, 243.126 361.040, 244.399 360.253 C 244.970 359.901, 248.826 359.302, 252.968 358.924 C 257.111 358.545, 262.639 357.398, 265.253 356.375 C 270.474 354.331, 272.702 354.914, 274.467 358.786 C 275.210 360.415, 276.487 360.977, 279.967 361.204 L 284.500 361.500 284.230 369.791 C 283.984 377.367, 284.182 378.371, 286.525 381.443 L 289.089 384.805 294.145 381.403 C 296.926 379.531, 299.575 378, 300.033 378 C 300.864 378, 302.488 381.940, 301.841 382.386 C 301.654 382.515, 299.198 384.064, 296.385 385.828 L 291.271 389.035 292.654 394.767 C 294.609 402.873, 294.485 406.842, 292.113 412 C 289.481 417.725, 289.473 421.611, 292.082 427.667 C 293.228 430.325, 295.002 436.400, 296.026 441.168 C 297.050 445.935, 299.263 452.560, 300.944 455.889 C 302.625 459.219, 304 463.216, 304 464.771 C 304 470.301, 307.831 471.273, 318.176 468.370 C 322.741 467.090, 324.789 465.819, 327.742 462.436 C 334.330 454.890, 336.105 452.125, 336.694 448.497 C 337.098 446.006, 338.120 444.452, 340.135 443.261 C 342.769 441.705, 343 441.097, 343 435.719 C 343 428.386, 343.774 426.969, 350.485 422.011 C 357.167 417.075, 357.758 414.774, 355.581 402.161 C 353.231 388.545, 353.387 387.340, 358.500 379.555 C 360.975 375.787, 363 372.568, 363 372.402 C 363 372.236, 360.413 371.965, 357.250 371.800 C 352.156 371.534, 351.464 371.243, 351.180 369.250 C 350.868 367.052, 351.082 367, 360.342 367 C 369.808 367, 369.826 366.995, 372.565 363.750 C 376.311 359.310, 382 347.199, 382 343.665 C 382 340.947, 381.805 340.809, 378.750 341.368 C 376.962 341.695, 373.191 342.254, 370.370 342.609 L 365.239 343.255 364.027 339.582 C 363.360 337.562, 361.061 334.286, 358.917 332.303 C 355.529 329.168, 349 318.059, 349 315.430 C 349 314.928, 347.452 311.364, 345.561 307.509 C 341.136 298.491, 340.239 295, 342.345 295 C 343.204 295, 344.618 296.012, 345.487 297.250 C 349.725 303.284, 352.032 307.281, 352.614 309.597 C 352.965 310.997, 354.708 314.259, 356.487 316.845 C 358.266 319.431, 360.066 322.661, 360.488 324.023 C 363.102 332.465, 365.287 337, 366.742 337 C 369.299 337, 382.258 330.856, 385.055 328.318 C 386.460 327.043, 388.132 326, 388.770 326 C 389.408 326, 391.495 324.626, 393.408 322.947 L 396.885 319.894 391.692 312.491 C 388.684 308.202, 385.764 305.070, 384.750 305.044 C 383.788 305.020, 383 304.565, 383 304.033 C 383 303.502, 380.934 300.741, 378.409 297.898 C 375.270 294.363, 373.945 292.061, 374.219 290.615 C 374.497 289.149, 371.362 283.895, 364.007 273.500 C 352.350 257.025, 354.537 258.672, 341.393 256.465 C 338.688 256.011, 335.391 256.326, 331.739 257.387 C 328.688 258.274, 325.924 259, 325.596 259 C 323.971 259, 325.271 251.214, 327.542 247.338 C 330.487 242.313, 331.982 241.989, 335.369 245.642 C 338.543 249.065, 340.749 248.253, 340.608 243.713 C 340.522 240.961, 337.538 236.047, 326 219.664 C 318.025 208.339, 311.050 199.080, 310.500 199.088 C 309.950 199.095, 306.575 201.616, 303 204.689 M 255.250 211.031 C 254.012 211.529, 253 212.703, 253 213.642 C 253 215.080, 253.394 214.978, 255.500 213 C 256.875 211.708, 258 210.505, 258 210.326 C 258 209.925, 258.008 209.923, 255.250 211.031 M 291.041 247.750 C 291.096 250.147, 295.815 255.387, 299.703 257.369 C 302.896 258.997, 302.900 259.011, 301.237 261.910 L 299.568 264.818 297.828 261.958 C 296.871 260.384, 294.655 258.356, 292.903 257.450 C 291.150 256.544, 288.219 254.167, 286.388 252.168 L 283.058 248.534 280.125 250.267 C 278.512 251.220, 275.972 252, 274.482 252 C 271.271 252, 264.812 258.490, 262.425 264.114 C 260.909 267.687, 257.628 270, 254.075 270 C 252.026 270, 249.659 272.326, 250.675 273.342 C 252.029 274.696, 259.071 273.931, 262.719 272.034 C 265.292 270.696, 269.579 269.853, 276.138 269.394 C 285.426 268.745, 285.801 268.799, 286.463 270.883 C 286.840 272.072, 286.880 274.272, 286.551 275.772 C 285.989 278.339, 286.308 278.637, 291.977 280.832 C 295.290 282.114, 298 283.515, 298 283.946 C 298 284.376, 300.076 285.521, 302.613 286.490 C 307.543 288.373, 308.950 287.760, 308.985 283.719 C 309.010 280.815, 311.315 280.732, 320.141 283.320 C 325.769 284.970, 330.605 285.714, 334.943 285.596 C 341.226 285.426, 341.419 285.340, 342.726 282.136 C 344.122 278.715, 344.734 272.401, 343.764 271.431 C 343.457 271.123, 339.290 270.818, 334.505 270.752 C 325.074 270.623, 323.996 270.002, 322.478 263.824 C 322.116 262.352, 321.048 260.448, 320.104 259.594 C 318.551 258.189, 318.172 258.191, 316.140 259.614 C 314.031 261.092, 313.989 261.335, 315.462 263.583 C 316.753 265.553, 316.809 266.333, 315.775 267.989 C 315.084 269.095, 313.933 270, 313.217 270 C 311.992 270, 306.002 258.740, 306.001 256.434 C 306 255.848, 304.309 254.418, 302.242 253.256 C 300.175 252.094, 297.397 249.987, 296.068 248.572 C 293.275 245.599, 290.982 245.224, 291.041 247.750 M 448 303.100 C 448 303.704, 446.423 307.839, 444.495 312.287 C 441.012 320.325, 441.037 321.937, 444.650 321.985 C 446.088 322.004, 453.254 305.105, 452.567 303.315 C 451.959 301.729, 448 301.542, 448 303.100 M 327 368.075 C 316.534 370.067, 313.882 371.169, 314.200 373.394 C 314.544 375.799, 314.439 375.798, 326.500 373.506 C 338.352 371.253, 337.925 371.429, 337.306 369.061 C 336.712 366.791, 334.740 366.603, 327 368.075 M 126.414 374.604 C 125.714 378.338, 126.205 394.540, 127.044 395.378 C 127.343 395.676, 128.468 395.690, 129.544 395.408 C 131.341 394.937, 131.500 393.969, 131.500 383.516 C 131.500 372.537, 131.421 372.122, 129.269 371.710 C 127.408 371.355, 126.934 371.836, 126.414 374.604 M 132.708 408.697 C 131.400 409.037, 131.090 409.747, 131.559 411.331 C 132.446 414.326, 137.770 423.816, 140.785 427.778 C 143.084 430.798, 143.417 430.933, 145.015 429.486 C 146.646 428.010, 146.486 427.514, 142.356 421.225 C 139.939 417.546, 137.430 413.064, 136.780 411.267 C 136.130 409.470, 135.351 408.052, 135.049 408.116 C 134.747 408.180, 133.694 408.441, 132.708 408.697 M 373.759 412.489 C 372.517 414.408, 370.041 416.677, 368.258 417.532 C 365.008 419.090, 364.599 419.952, 363.532 427.500 C 361.818 439.616, 361.784 442.576, 363.347 443.873 C 367.447 447.276, 369.937 443.232, 376.014 423.300 C 378.478 415.221, 378.896 412.674, 378.027 411.050 C 376.581 408.349, 376.401 408.410, 373.759 412.489 M 154.899 439.189 C 153.486 441.829, 155.311 443.426, 165.699 448.640 C 173.070 452.340, 176 452.497, 176 449.190 C 176 447.885, 174.839 446.969, 172.173 446.170 C 170.069 445.539, 165.576 443.233, 162.191 441.045 C 156.117 437.119, 156.020 437.095, 154.899 439.189" stroke="none" fill="#15bdb1" fill-rule="evenodd"/><path d="M 391.500 70.365 C 374.622 74.797, 361.407 85.658, 337.500 114.746 C 332 121.438, 327.083 126.933, 326.573 126.957 C 325.764 126.995, 305.301 120.642, 246 101.942 C 237.475 99.254, 217 92.827, 200.500 87.661 L 170.500 78.267 168.250 80.308 C 167.012 81.430, 166.004 82.608, 166.010 82.924 C 166.015 83.241, 194.316 102.850, 228.901 126.500 C 278.059 160.115, 291.608 169.827, 290.981 171 C 288.830 175.022, 263.029 205.171, 234.072 237.500 C 226.683 245.750, 220.327 252.868, 219.950 253.319 C 219.572 253.769, 210.351 250.755, 199.458 246.622 L 179.653 239.107 175.813 242.148 L 171.972 245.190 174.236 246.909 C 175.481 247.855, 183.587 253.490, 192.250 259.432 C 200.912 265.374, 208 270.647, 208 271.150 C 208 271.653, 207.315 273.704, 206.477 275.709 C 204.434 280.598, 205.753 281.649, 210.845 279.189 L 214.928 277.216 217.283 280.358 C 218.578 282.086, 223.627 289.350, 228.503 296.500 C 233.379 303.650, 238.143 310.519, 239.089 311.764 L 240.810 314.028 243.866 310.169 L 246.922 306.311 239.325 286.470 L 231.728 266.630 234.614 264.206 C 236.201 262.873, 241.325 258.324, 246 254.098 C 282.760 220.871, 315.845 193.139, 316.838 194.724 C 317.202 195.304, 336.618 223.726, 359.984 257.883 L 402.467 319.987 404.923 317.532 L 407.378 315.076 398.607 286.788 C 389.394 257.077, 383.105 237.099, 368.097 189.877 C 363.094 174.134, 359 160.621, 359 159.848 C 359 159.076, 364.955 153.506, 372.233 147.472 C 396.807 127.097, 404.788 118.511, 411.403 105.329 C 416.298 95.575, 417.639 87.043, 415.555 78.908 C 414.667 75.443, 413.842 72.562, 413.720 72.506 C 406.742 69.300, 398.560 68.512, 391.500 70.365 M 387.099 75.871 C 385.098 76.431, 385.565 76.721, 389.901 77.609 C 394.563 78.564, 395.206 78.484, 396.087 76.837 C 396.964 75.198, 396.661 75.011, 393.285 75.100 C 391.203 75.155, 388.420 75.502, 387.099 75.871 M 241.158 77.310 C 240.322 78.317, 241.782 80.321, 247.479 85.980 L 254.888 93.339 256.123 90.629 C 257.299 88.048, 257.078 87.636, 251.460 81.960 C 245.525 75.962, 243.162 74.895, 241.158 77.310 M 398.715 77.981 C 397.986 80.769, 405.253 88.008, 408.047 87.277 C 410.814 86.554, 409.788 83.399, 405.437 79.250 C 401.536 75.530, 399.459 75.138, 398.715 77.981 M 408.749 89.798 C 406.964 90.154, 406.984 90.734, 409.028 98 C 409.691 100.358, 409.772 100.295, 410.452 96.881 C 411.460 91.824, 410.871 89.375, 408.749 89.798 M 284.441 92.443 C 282.590 93.818, 282.824 94.213, 289.480 100.949 C 293.319 104.835, 296.887 107.871, 297.408 107.697 C 297.930 107.523, 298.833 106.627, 299.414 105.705 C 300.283 104.328, 299.320 102.868, 294.015 97.515 C 290.463 93.932, 287.293 91, 286.970 91 C 286.647 91, 285.509 91.649, 284.441 92.443 M 378.954 187.555 C 377.850 188.886, 378.658 190.113, 384.555 196.055 C 388.345 199.875, 391.780 203, 392.188 203 C 392.596 203, 393.441 202.045, 394.065 200.878 C 395.078 198.986, 394.516 198.065, 388.879 192.378 C 382.195 185.634, 381.022 185.064, 378.954 187.555 M 394.158 230.310 C 393.322 231.317, 394.782 233.321, 400.479 238.980 C 407.824 246.275, 407.898 246.318, 408.998 243.904 C 410.005 241.693, 409.584 240.899, 404.396 235.235 C 398.703 229.020, 396.220 227.825, 394.158 230.310 M 190.163 292.336 C 182.777 299.761, 182.059 300.804, 183.507 302.006 C 184.931 303.188, 186.135 302.350, 193.294 295.191 C 200.567 287.918, 201.292 286.864, 199.949 285.521 C 198.606 284.178, 197.540 284.921, 190.163 292.336 M 447.913 304.829 C 447.375 306.298, 445.742 310.348, 444.284 313.828 C 442.103 319.035, 441.879 320.307, 443.019 321.012 C 443.781 321.483, 444.722 321.672, 445.110 321.432 C 445.674 321.083, 450.047 311.252, 452.617 304.556 C 452.898 303.825, 452.196 303.023, 451.002 302.711 C 449.373 302.285, 448.667 302.769, 447.913 304.829 M 162.669 318.830 C 155.741 325.799, 155.063 326.807, 156.500 328 C 157.911 329.171, 159.110 328.350, 166.021 321.479 C 172.102 315.434, 173.677 313.316, 172.842 312.309 C 172.244 311.589, 171.462 311, 171.104 311 C 170.746 311, 166.950 314.523, 162.669 318.830 M 431.697 337.446 C 430.203 339.808, 427.191 343.774, 425.003 346.259 C 421.639 350.081, 421.249 350.962, 422.469 351.975 C 423.263 352.633, 424.371 352.889, 424.931 352.542 C 426.041 351.856, 433.626 342.126, 436.406 337.822 C 438.058 335.264, 438.053 335.099, 436.275 334.147 C 434.708 333.308, 433.986 333.828, 431.697 337.446 M 141.363 343.196 C 139.186 346.113, 136.187 350.607, 134.700 353.182 L 131.996 357.864 134.204 358.565 C 135.643 359.021, 136.562 358.814, 136.844 357.969 C 137.082 357.255, 139.721 353.081, 142.709 348.693 C 147.385 341.825, 147.946 340.517, 146.732 339.303 C 145.518 338.089, 144.770 338.632, 141.363 343.196 M 404.500 362.495 C 401.750 363.713, 397.137 365.270, 394.250 365.954 C 389.407 367.103, 387.557 368.990, 389.871 370.420 C 391.806 371.616, 412 364.845, 412 362.999 C 412 360.609, 409.186 360.420, 404.500 362.495 M 332 367.666 C 324.906 368.783, 314.976 371.230, 314.516 371.974 C 314.229 372.439, 314.246 373.478, 314.555 374.283 C 315.043 375.553, 315.739 375.564, 319.825 374.367 C 322.415 373.607, 327.226 372.652, 330.517 372.242 C 335.689 371.599, 336.543 371.193, 336.820 369.249 C 337.145 366.959, 336.932 366.889, 332 367.666 M 352 368.852 C 352 370.453, 353.118 370.791, 360.250 371.346 C 373.551 372.381, 375 372.263, 375 370.139 C 375 368.641, 373.976 368.156, 369.750 367.648 C 366.863 367.301, 361.688 367.013, 358.250 367.009 C 352.830 367.001, 352 367.246, 352 368.852 M 126.642 375.750 C 125.151 384.769, 126.372 395, 128.939 395 C 130.410 395, 130.615 393.595, 130.615 383.500 C 130.615 373.405, 130.410 372, 128.939 372 C 127.778 372, 127.071 373.154, 126.642 375.750 M 294.455 381.560 C 291.681 383.415, 287.639 386.464, 285.474 388.336 C 282.035 391.309, 281.709 391.945, 282.894 393.372 C 284.125 394.856, 284.585 394.706, 287.875 391.752 C 289.869 389.962, 293.863 386.989, 296.750 385.145 C 302.280 381.613, 302.773 380.881, 300.750 379.216 C 299.848 378.473, 298.094 379.127, 294.455 381.560 M 262.775 411.406 C 255.924 418.847, 255.230 419.946, 256.648 421.123 C 258.041 422.279, 259.245 421.362, 266.031 413.975 C 271.778 407.718, 273.546 405.173, 272.785 404.250 C 272.219 403.563, 271.473 403.004, 271.128 403.008 C 270.782 403.012, 267.024 406.791, 262.775 411.406 M 132 410.540 C 132 412.966, 136.802 421.746, 142.519 429.774 C 142.903 430.312, 146 428.771, 146 428.041 C 146 427.632, 144.017 424.277, 141.593 420.587 C 139.169 416.896, 136.911 412.780, 136.574 411.438 C 135.889 408.709, 132 407.945, 132 410.540 M 239.500 432.092 C 237.300 433.760, 233.159 436.467, 230.299 438.108 C 226.775 440.129, 225.278 441.560, 225.656 442.545 C 225.963 443.345, 226.802 444, 227.521 444 C 229.936 444, 246.072 432.611, 245.781 431.112 C 245.307 428.673, 243.672 428.928, 239.500 432.092 M 155.073 439.412 C 153.553 441.243, 157.877 444.644, 167.379 449.090 C 172.968 451.706, 174.366 452.032, 175.087 450.892 C 176.469 448.708, 175.756 447.897, 170.799 446.015 C 168.256 445.050, 164.088 442.851, 161.537 441.130 C 156.147 437.492, 156.573 437.605, 155.073 439.412 M 205 448.540 C 202.525 449.254, 198.137 449.875, 195.250 449.920 C 190.693 449.989, 190 450.264, 190 452 C 190 453.707, 190.667 454, 194.553 454 C 197.057 454, 202.256 453.283, 206.108 452.407 C 211.594 451.160, 213.042 450.458, 212.794 449.169 C 212.389 447.067, 210.601 446.923, 205 448.540" stroke="none" fill="#ffffff" fill-rule="evenodd"/><path d="M 234.662 82.952 C 230.676 87.364, 225.493 94.873, 226.104 95.351 C 226.322 95.522, 230.954 97.057, 236.398 98.761 L 246.295 101.860 251.398 96.913 C 254.204 94.193, 255.820 92.206, 254.989 92.499 C 254.026 92.837, 250.946 90.481, 246.515 86.015 C 242.686 82.157, 239.256 79, 238.893 79 C 238.530 79, 236.626 80.778, 234.662 82.952 M 278.350 97.250 C 273.050 102.912, 269.646 108.048, 270.596 108.948 C 271.093 109.419, 275.855 111.141, 281.177 112.775 L 290.854 115.745 294.138 112.358 L 297.421 108.971 289.985 101.485 C 285.896 97.368, 282.290 94, 281.971 94 C 281.653 94, 280.023 95.463, 278.350 97.250 M 373.312 192.250 L 370.231 195.500 373.203 205 C 374.837 210.225, 376.512 214.855, 376.925 215.288 C 377.696 216.097, 388.377 208.716, 390.919 205.617 C 392.198 204.059, 391.605 203.150, 384.944 196.444 C 380.877 192.350, 377.290 189, 376.971 189 C 376.653 189, 375.006 190.463, 373.312 192.250 M 387.708 235.902 L 384.182 239.804 387.223 249.652 C 388.895 255.068, 390.408 259.667, 390.585 259.871 C 391.055 260.410, 403.157 251.619, 405.438 249.082 L 407.377 246.926 399.963 239.463 C 395.886 235.358, 392.254 232, 391.891 232 C 391.529 232, 389.646 233.756, 387.708 235.902" stroke="none" fill="#fbb429" fill-rule="evenodd"/><path d="M 232.500 0.597 C 230.850 0.826, 225.900 1.490, 221.500 2.072 C 117.328 15.866, 30.577 94.720, 6.501 197.500 C 1.367 219.417, 0.500 227.870, 0.500 256 C 0.500 284.130, 1.367 292.583, 6.501 314.500 C 10.856 333.092, 18.740 354.870, 26.774 370.500 L 29.858 376.500 29.855 356.445 C 29.850 327.589, 32.879 307.627, 41.033 282.772 C 59.916 225.217, 101.448 177.802, 156.500 150.948 C 176.009 141.432, 194.502 135.350, 217.250 130.966 C 220.412 130.357, 223 129.754, 223 129.626 C 223 129.498, 209.307 119.743, 192.571 107.947 L 162.142 86.500 166.341 82.243 L 170.540 77.986 197.520 86.477 C 212.359 91.147, 224.778 94.975, 225.117 94.984 C 225.457 94.993, 226.984 93.111, 228.513 90.802 C 231.887 85.703, 239.705 77.228, 242.331 75.823 C 243.958 74.952, 245.272 75.816, 251.064 81.563 C 257.672 88.121, 257.840 88.410, 256.517 90.966 C 255.767 92.417, 253.163 95.438, 250.730 97.681 L 246.307 101.758 257.863 105.381 C 268.060 108.578, 269.522 108.818, 270.301 107.427 C 272.159 104.106, 279.663 95.560, 283.277 92.649 L 287.054 89.607 294.027 96.527 C 297.862 100.332, 301 103.760, 301 104.143 C 301 104.526, 298.705 107.350, 295.900 110.419 C 293.094 113.489, 291.037 116, 291.327 116 C 291.741 116, 311.802 122.249, 324.635 126.375 C 326.467 126.964, 328.592 124.890, 339.586 111.781 C 360.274 87.113, 370.565 78.101, 385 72.015 C 392.441 68.878, 403.502 68.156, 409.434 70.422 C 413.282 71.891, 414.051 72.702, 415.424 76.732 C 419.532 88.786, 415.530 102.427, 402.982 119.149 C 398.445 125.195, 393.135 130.146, 371.245 148.746 L 363.990 154.910 368.745 157.647 C 411.297 182.140, 446.070 221.379, 464.766 266 C 477.165 295.590, 482.084 321.240, 482.122 356.500 L 482.144 376.500 485.616 369.691 C 497.661 346.065, 507.132 314.590, 510.087 288.367 C 510.699 282.940, 511.604 277.719, 512.099 276.764 C 513.375 274.304, 513.279 233.709, 512 234.500 C 511.402 234.869, 511 233.633, 511 231.428 C 511 226.222, 508.254 209.300, 505.495 197.500 C 484.797 108.991, 416.999 36.828, 330 10.704 C 304.158 2.944, 289.859 0.857, 260 0.486 C 246.525 0.319, 234.150 0.369, 232.500 0.597 M 0.425 256 C 0.425 267.825, 0.569 272.663, 0.746 266.750 C 0.923 260.837, 0.923 251.162, 0.746 245.250 C 0.569 239.338, 0.425 244.175, 0.425 256" stroke="none" fill="#ff757c" fill-rule="evenodd"/><path d="M 216 131.137 C 183.215 137.860, 155.239 149.211, 130.198 165.949 C 123.489 170.433, 118 174.244, 118 174.417 C 118 174.590, 119.812 174.400, 122.026 173.995 C 125.667 173.329, 125.996 173.438, 125.459 175.129 C 124.698 177.527, 125.820 177.511, 128.436 175.087 C 130.435 173.234, 132.149 172.635, 134.750 172.882 C 137.116 173.106, 135.995 174.842, 133.069 175.485 C 131.457 175.839, 129.607 176.769, 128.957 177.551 C 127.653 179.123, 128.456 184, 130.019 184 C 130.559 184, 131 184.900, 131 186 C 131 188.635, 132.279 188.524, 135.685 185.595 L 138.481 183.189 136.500 181 L 134.519 178.811 137.315 176.405 C 139.836 174.237, 141.030 174, 149.433 174 C 156.723 174, 159.042 174.346, 160.071 175.585 C 160.795 176.457, 163.072 177.845, 165.132 178.670 C 167.928 179.788, 169.041 180.912, 169.522 183.102 C 169.928 184.949, 171.246 186.593, 173.083 187.543 C 174.687 188.373, 176 189.400, 176 189.826 C 176 192.434, 169.867 194.212, 168.500 192 C 167.052 189.657, 165.804 191.144, 166.428 194.470 C 167.042 197.742, 166.871 198.027, 163.435 199.463 C 159.079 201.283, 155.988 200.681, 152.921 197.415 C 151.538 195.944, 149.524 195, 147.767 195 C 146.098 195, 145.143 194.578, 145.500 194 C 145.840 193.450, 147.554 192.986, 149.309 192.968 C 152.423 192.938, 158 189.190, 158 187.130 C 158 184.350, 145.107 180.020, 144.959 182.750 C 144.937 183.162, 143.611 185.029, 142.012 186.899 C 140.012 189.238, 137.921 190.494, 135.303 190.926 L 131.500 191.555 133.750 193.500 C 136.739 196.084, 136.587 197, 133.167 197 C 129.597 197, 128.671 197.897, 130.259 199.819 C 131.355 201.146, 131.231 201.157, 129.193 199.911 C 127.594 198.933, 127.015 197.810, 127.305 196.250 C 127.535 195.012, 127.622 194, 127.499 194 C 125.900 194, 111.741 200.729, 107.710 203.404 C 102.833 206.642, 102.426 207.204, 102.780 210.217 C 103.140 213.269, 103.671 213.694, 110.333 216.264 C 114.275 217.783, 118.093 219.021, 118.817 219.014 C 119.659 219.005, 119.930 219.722, 119.567 221 C 119.255 222.100, 118.785 223.787, 118.523 224.750 C 117.850 227.217, 119.399 229.262, 121.620 228.838 C 122.821 228.608, 123.824 227.170, 124.399 224.853 C 125.146 221.838, 125.918 221.041, 128.986 220.122 C 133.900 218.650, 135.606 216.462, 136.357 210.668 C 136.702 208.010, 137.754 204.532, 138.696 202.938 C 140.256 200.297, 140.763 200.094, 144.453 200.639 C 150.386 201.515, 153 203.477, 153 207.054 C 153 211.066, 155.385 211.831, 159.170 209.032 C 162.914 206.264, 164.040 207.173, 164.758 213.543 C 165.195 217.424, 165.800 218.546, 168.173 219.880 C 171.846 221.944, 172.464 224.439, 170.606 229.702 C 169.204 233.674, 169.229 233.938, 171.061 234.519 C 173.669 235.347, 173.834 241.003, 171.250 240.994 C 168.812 240.987, 162 239.028, 162 238.335 C 162 238.021, 163.350 236.226, 165 234.347 C 168.748 230.078, 168.846 228.516, 165.250 230.356 C 163.738 231.130, 160.586 232.082, 158.246 232.470 C 155.906 232.859, 154.245 233.587, 154.555 234.089 C 155.463 235.559, 153.807 235.135, 151.900 233.410 C 150.811 232.424, 149.356 232.070, 148.072 232.477 C 145.418 233.319, 145.419 234.615, 148.075 235.309 C 149.807 235.762, 149.972 236.183, 149.075 237.860 C 148.484 238.965, 148 240.857, 148 242.066 C 148 244.052, 148.384 244.212, 152 243.727 C 157.232 243.025, 157.108 244.597, 151.750 246.891 C 144.080 250.175, 142.610 250.457, 143.360 248.504 C 143.917 247.053, 143.603 246.883, 141.389 247.439 C 135.886 248.820, 131.579 251.510, 131.014 253.920 C 130.642 255.510, 129.339 256.712, 127.212 257.429 C 125.432 258.028, 121.731 260.452, 118.988 262.815 C 114.877 266.356, 114 267.692, 114 270.416 C 114 273.385, 113.341 274.148, 107.521 277.911 C 98.748 283.585, 97.802 285.108, 98.609 292.250 C 99.033 296.004, 98.895 298, 98.211 298 C 95.497 298, 94 296.583, 94 294.015 C 94 290.342, 92.228 289.051, 86.207 288.338 C 82.504 287.900, 80.612 288.158, 78.938 289.331 C 77.313 290.469, 75.450 290.749, 72.341 290.323 C 68.746 289.830, 67.339 290.171, 64.087 292.324 C 60.912 294.425, 59.864 295.955, 58.583 300.363 C 54.954 312.846, 58.202 322.078, 66.184 321.968 C 69.203 321.927, 71.302 320.257, 73.372 316.250 C 74.615 313.845, 75.729 313, 77.656 313 C 80.503 313, 80.458 312.244, 78.380 325.250 L 77.781 329 81.809 329 C 88.855 329, 89.179 329.383, 88.468 336.875 C 87.626 345.748, 88.873 347.478, 96.170 347.561 C 99.101 347.594, 102.257 347.968, 103.182 348.392 C 104.448 348.971, 105.258 348.401, 106.453 346.091 C 107.327 344.402, 109.841 342.102, 112.040 340.979 C 115.506 339.212, 116.117 339.143, 116.624 340.462 C 117.014 341.478, 117.971 341.794, 119.497 341.412 C 120.755 341.096, 123.161 341.549, 124.843 342.419 C 126.684 343.371, 130.407 343.999, 134.200 343.997 C 140.084 343.994, 140.632 343.796, 142.500 341 C 144.681 337.735, 146.154 337.276, 147.858 339.329 C 148.696 340.339, 148.245 341.632, 145.985 344.706 L 143.009 348.753 147.482 352.877 C 150.930 356.055, 152.750 357, 155.422 357 C 160.100 357, 163.400 360.055, 167.305 368 C 170.047 373.578, 171.007 374.642, 174.070 375.500 C 176.034 376.050, 178.818 377.279, 180.257 378.232 C 181.696 379.184, 185.030 380.446, 187.665 381.037 C 190.300 381.628, 193.816 383.146, 195.478 384.411 C 197.140 385.677, 199.489 387.025, 200.699 387.407 C 205.437 388.905, 205.381 395.962, 200.567 403.760 C 197.712 408.385, 197 410.547, 197 414.586 C 197 420.827, 195.236 430.672, 193.536 433.916 C 192.804 435.314, 189.556 437.650, 185.882 439.422 L 179.500 442.500 178.943 448 C 178.613 451.260, 177.130 455.944, 175.301 459.500 C 173.604 462.800, 171.911 466.512, 171.540 467.750 C 170.989 469.587, 170.144 470, 166.933 470 C 164.770 470, 163 470.210, 163 470.466 C 163 470.722, 163.739 472.482, 164.642 474.375 C 166.799 478.899, 165.967 480.662, 161.051 481.986 C 157.806 482.860, 157 483.535, 157 485.378 C 157 486.914, 156.092 488.093, 154.266 488.925 L 151.532 490.170 158.016 492.927 C 178.126 501.477, 200.408 507.041, 230.291 510.974 C 240.341 512.297, 271.659 512.297, 281.709 510.974 C 317.965 506.202, 340.750 499.666, 368.557 486.062 C 414.377 463.645, 451.412 429.197, 477.866 384.387 L 482.066 377.273 482.113 357.387 C 482.161 337.355, 479.855 312.149, 477.861 310.915 C 477.342 310.594, 475.023 310.819, 472.708 311.415 C 469.351 312.281, 466.731 314.341, 459.750 321.602 C 451.396 330.293, 451 330.908, 451 335.203 C 451 341.943, 447.701 350, 444.941 350 C 444.529 350, 442.854 346.794, 441.218 342.875 L 438.244 335.751 434.208 341.625 C 431.988 344.856, 428.817 349.075, 427.161 351 C 424.322 354.302, 424.053 354.404, 422.413 352.802 C 420.765 351.192, 420.856 350.879, 424.156 346.802 C 426.070 344.436, 429.103 340.343, 430.896 337.707 C 433.403 334.020, 434.592 333.053, 436.051 333.516 C 437.839 334.084, 437.866 333.924, 436.529 330.723 C 435.748 328.855, 434.557 324.328, 433.882 320.661 C 432.723 314.372, 432.506 314.006, 430.048 314.193 C 426.947 314.429, 425 313.397, 425 311.516 C 425 310.765, 423.087 308.321, 420.750 306.086 C 416.712 302.224, 416.188 302.021, 410.250 302.011 C 406.813 302.005, 404.003 302.113, 404.008 302.250 C 404.012 302.387, 404.902 305.418, 405.987 308.984 L 407.958 315.467 403.801 319.702 C 399.773 323.807, 399.601 323.876, 398.242 321.936 C 396.865 319.970, 396.777 319.988, 393.385 322.967 C 391.485 324.635, 389.408 326, 388.770 326 C 388.132 326, 386.460 327.043, 385.055 328.318 C 382.258 330.856, 369.299 337, 366.742 337 C 365.287 337, 363.102 332.465, 360.488 324.023 C 360.066 322.661, 358.266 319.431, 356.487 316.845 C 354.708 314.259, 352.965 310.997, 352.614 309.597 C 352.032 307.281, 349.725 303.284, 345.487 297.250 C 344.618 296.012, 343.204 295, 342.345 295 C 340.239 295, 341.136 298.491, 345.561 307.509 C 347.452 311.364, 349 314.928, 349 315.430 C 349 318.059, 355.529 329.168, 358.917 332.303 C 361.061 334.286, 363.360 337.562, 364.027 339.582 L 365.239 343.255 370.370 342.609 C 373.191 342.254, 376.962 341.695, 378.750 341.368 C 381.805 340.809, 382 340.947, 382 343.665 C 382 347.199, 376.311 359.310, 372.565 363.750 L 369.822 367 372.411 367 C 374.506 367, 375 367.477, 375 369.500 C 375 371.880, 374.720 372, 369.194 372 L 363.387 372 358.694 379.231 C 353.374 387.426, 353.226 388.517, 355.581 402.161 C 357.758 414.774, 357.167 417.075, 350.485 422.011 C 343.774 426.969, 343 428.386, 343 435.719 C 343 441.097, 342.769 441.705, 340.135 443.261 C 338.120 444.452, 337.098 446.006, 336.694 448.497 C 336.105 452.125, 334.330 454.890, 327.742 462.436 C 324.789 465.819, 322.741 467.090, 318.176 468.370 C 307.831 471.273, 304 470.301, 304 464.771 C 304 463.216, 302.625 459.219, 300.944 455.889 C 299.263 452.560, 297.050 445.935, 296.026 441.168 C 295.002 436.400, 293.228 430.325, 292.082 427.667 C 289.490 421.650, 289.481 417.741, 292.047 412.085 C 293.148 409.657, 294.119 406.732, 294.204 405.585 C 294.389 403.088, 291.967 390, 291.320 390 C 291.071 390, 289.297 391.197, 287.379 392.660 C 284.069 395.185, 283.805 395.231, 282.196 393.578 C 280.596 391.935, 280.740 391.636, 284.762 388.279 L 289.024 384.721 286.493 381.401 C 284.187 378.378, 283.985 377.342, 284.230 369.791 L 284.500 361.500 279.967 361.204 C 276.487 360.977, 275.210 360.415, 274.467 358.786 C 272.702 354.914, 270.474 354.331, 265.253 356.375 C 262.639 357.398, 257.111 358.545, 252.968 358.924 C 248.826 359.302, 244.970 359.901, 244.399 360.253 C 243.126 361.040, 231 351.279, 231 349.467 C 231 348.750, 228.934 345.764, 226.409 342.832 L 221.818 337.500 222.601 332 C 223.032 328.975, 223.300 322.939, 223.198 318.586 C 223.039 311.806, 223.369 310.034, 225.500 306.221 L 227.988 301.770 220.085 290.635 C 215.403 284.039, 211.635 279.658, 210.841 279.887 C 204.898 281.600, 204.736 281.523, 205.446 277.320 L 206.114 273.364 187.535 260.432 L 168.955 247.500 173.728 243.271 C 176.352 240.944, 179.021 239.032, 179.657 239.021 C 180.293 239.009, 189.068 242.157, 199.157 246.016 C 209.246 249.875, 218.072 252.912, 218.772 252.766 C 220.905 252.320, 253 215.785, 253 213.803 C 253 212.754, 254.069 211.544, 255.464 211.014 C 256.820 210.498, 264.132 202.817, 271.714 193.943 C 285.135 178.238, 287.548 175.147, 286.842 174.571 C 280.018 169, 223.352 130.033, 222.182 130.107 C 221.257 130.166, 218.475 130.629, 216 131.137 M 361.195 157.293 L 359.041 159.586 363.270 172.543 L 367.500 185.500 371 185.155 C 372.925 184.965, 375.066 184.344, 375.758 183.775 C 377 182.755, 383.167 183.175, 387.957 184.607 L 390.414 185.341 388.229 182.564 C 384.609 177.962, 388.630 173.373, 393.186 176.907 C 394.459 177.894, 396.073 178.503, 396.773 178.260 C 398.320 177.723, 393.664 173.883, 382 166.076 C 373.856 160.626, 364.585 155, 363.746 155 C 363.528 155, 362.379 156.032, 361.195 157.293 M 112.408 179.073 C 110.383 180.683, 109.124 182.002, 109.612 182.004 C 110.101 182.006, 108.925 182.971, 107 184.148 C 103.812 186.097, 103.678 186.356, 105.500 187.049 C 108.262 188.100, 112.241 187.041, 113.807 184.838 C 115.381 182.623, 118 182.412, 118 184.500 C 118 186.055, 119.565 186.565, 120.303 185.250 C 120.534 184.838, 120.992 183.372, 121.320 181.994 C 121.803 179.961, 121.366 179.173, 119.004 177.817 C 116.159 176.184, 116.006 176.214, 112.408 179.073 M 95 194.500 C 90.903 198.625, 87.775 202, 88.050 202 C 88.325 202, 91.903 198.625, 96 194.500 C 100.097 190.375, 103.225 187, 102.950 187 C 102.675 187, 99.097 190.375, 95 194.500 M 415.500 194 C 419.320 197.850, 422.671 201, 422.946 201 C 423.221 201, 420.320 197.850, 416.500 194 C 412.680 190.150, 409.329 187, 409.054 187 C 408.779 187, 411.680 190.150, 415.500 194 M 340.597 242.843 C 340.265 243.380, 340.267 244.531, 340.601 245.401 C 341.724 248.330, 338.019 248.500, 335.369 245.642 C 334.021 244.189, 332.281 243, 331.502 243 C 329.274 243, 325 251.188, 325 255.454 C 325 258.896, 325.201 259.176, 327.250 258.593 C 336.585 255.935, 339.062 255.696, 344.275 256.946 C 353.232 259.095, 353.517 258.445, 347.321 250 C 340.713 240.994, 341.332 241.653, 340.597 242.843 M 254.625 246.872 L 250.844 250.744 253.507 251.412 C 257.279 252.359, 259.896 251.262, 260.606 248.436 C 261.267 245.799, 260.561 243, 259.234 243 C 258.779 243, 256.704 244.742, 254.625 246.872 M 291.041 247.750 C 291.096 250.147, 295.815 255.387, 299.703 257.369 C 302.896 258.997, 302.900 259.011, 301.237 261.910 L 299.568 264.818 297.828 261.958 C 296.871 260.384, 294.655 258.356, 292.903 257.450 C 291.150 256.544, 288.219 254.167, 286.388 252.168 L 283.058 248.534 280.125 250.267 C 278.512 251.220, 275.972 252, 274.482 252 C 271.271 252, 264.812 258.490, 262.425 264.114 C 260.909 267.687, 257.628 270, 254.075 270 C 252.026 270, 249.659 272.326, 250.675 273.342 C 252.029 274.696, 259.071 273.931, 262.719 272.034 C 265.292 270.696, 269.579 269.853, 276.138 269.394 C 285.426 268.745, 285.801 268.799, 286.463 270.883 C 286.840 272.072, 286.880 274.272, 286.551 275.772 C 285.989 278.339, 286.308 278.637, 291.977 280.832 C 295.290 282.114, 298 283.515, 298 283.946 C 298 284.376, 300.076 285.521, 302.613 286.490 C 307.543 288.373, 308.950 287.760, 308.985 283.719 C 309.010 280.815, 311.315 280.732, 320.141 283.320 C 325.769 284.970, 330.605 285.714, 334.943 285.596 C 341.226 285.426, 341.419 285.340, 342.726 282.136 C 344.122 278.715, 344.734 272.401, 343.764 271.431 C 343.457 271.123, 339.290 270.818, 334.505 270.752 C 325.074 270.623, 323.996 270.002, 322.478 263.824 C 322.116 262.352, 321.048 260.448, 320.104 259.594 C 318.551 258.189, 318.172 258.191, 316.140 259.614 C 314.031 261.092, 313.989 261.335, 315.462 263.583 C 316.753 265.553, 316.809 266.333, 315.775 267.989 C 315.084 269.095, 313.933 270, 313.217 270 C 311.992 270, 306.002 258.740, 306.001 256.434 C 306 255.848, 304.309 254.418, 302.242 253.256 C 300.175 252.094, 297.397 249.987, 296.068 248.572 C 293.275 245.599, 290.982 245.224, 291.041 247.750 M 237.479 262.370 L 232.512 266.741 234.425 272.120 C 235.477 275.079, 237.112 279.300, 238.058 281.500 L 239.777 285.500 240.868 282.738 C 241.469 281.218, 243.063 279.473, 244.412 278.858 C 247.662 277.378, 249.722 272.575, 247.999 270.499 C 247.315 269.675, 245.959 269, 244.986 269 C 242.845 269, 241.771 265.396, 242.630 261.098 C 242.971 259.394, 243.069 258, 242.848 258 C 242.626 258, 240.210 259.967, 237.479 262.370 M 189.809 291.924 C 182.009 299.363, 181.602 299.953, 183.173 301.561 C 184.747 303.173, 185.353 302.811, 193.403 295.444 C 201.469 288.062, 201.866 287.509, 200.325 285.806 C 199.426 284.813, 198.561 284, 198.404 284 C 198.247 284, 194.380 287.566, 189.809 291.924 M 374 290.908 C 374 292.022, 376.025 295.213, 378.500 298 C 380.975 300.787, 383 303.502, 383 304.033 C 383 304.565, 383.702 305, 384.560 305 C 385.650 305, 384.552 302.733, 380.913 297.468 C 375.064 289.007, 374 287.998, 374 290.908 M 34.528 307.250 C 31.713 315.839, 29.847 335.787, 29.887 356.838 L 29.927 377.260 34.132 384.380 C 54.438 418.759, 80.117 446.287, 112 467.852 C 125.096 476.710, 134.048 482.025, 132.337 479.926 C 131.692 479.136, 131.175 475.289, 131.175 471.297 C 131.176 467.336, 130.915 463.671, 130.595 463.154 C 130.276 462.637, 129.329 454.426, 128.492 444.908 C 127.462 433.202, 126.472 426.843, 125.431 425.255 C 124.585 423.963, 121.480 421.363, 118.531 419.477 C 112.518 415.630, 111.139 413.888, 105.093 402.500 C 102.757 398.100, 99.700 393.292, 98.300 391.817 C 96.225 389.631, 95.872 388.519, 96.393 385.817 C 97.176 381.763, 97.180 381.269, 96.463 377.500 C 96.018 375.162, 96.677 373.294, 99.446 369.034 C 103.739 362.431, 104.211 356.499, 100.880 351.035 L 98.767 347.569 96.857 349.928 L 94.947 352.287 91.379 350.393 C 87.510 348.340, 83.441 344.040, 80.884 339.300 C 79.681 337.071, 78.129 336.018, 74.815 335.184 C 72.335 334.559, 68.904 332.669, 67.072 330.918 C 64.357 328.324, 63.209 327.867, 60.510 328.305 C 56.858 328.897, 49.902 326.093, 42.655 321.106 C 38.910 318.530, 38.385 317.734, 38.758 315.197 C 38.995 313.584, 38.459 310.855, 37.568 309.132 C 35.808 305.728, 35.158 305.326, 34.528 307.250 M 162.980 318.520 C 154.986 326.556, 154.646 327.075, 156.293 328.722 C 157.940 330.369, 158.462 330.024, 166.560 321.925 C 174.733 313.753, 175.015 313.323, 173.247 311.724 C 171.494 310.137, 170.982 310.476, 162.980 318.520 M 405 361.675 C 402.525 362.915, 397.913 364.485, 394.750 365.165 C 389.775 366.234, 389 366.710, 389 368.700 C 389 371.530, 391.316 371.688, 399.068 369.390 C 406.345 367.232, 412 364.264, 412 362.602 C 412 359.731, 409.534 359.404, 405 361.675 M 262.574 410.742 C 255.088 418.614, 254.743 419.172, 256.364 420.788 C 257.985 422.405, 258.524 422.048, 266.040 414.383 C 270.418 409.919, 274 405.864, 274 405.374 C 274 404.883, 273.212 404.014, 272.250 403.444 C 270.785 402.575, 269.210 403.764, 262.574 410.742 M 373.759 412.489 C 372.517 414.408, 370.041 416.677, 368.258 417.532 C 365.008 419.090, 364.599 419.952, 363.532 427.500 C 361.818 439.616, 361.784 442.576, 363.347 443.873 C 367.447 447.276, 369.937 443.232, 376.014 423.300 C 378.478 415.221, 378.896 412.674, 378.027 411.050 C 376.581 408.349, 376.401 408.410, 373.759 412.489 M 240.217 430.922 C 238.411 432.450, 234.262 435.231, 230.997 437.100 C 224.999 440.535, 224.338 441.407, 225.883 443.844 C 227.098 445.763, 229.657 444.387, 246.462 432.783 C 247.120 432.328, 246.768 431.348, 245.500 430.105 C 243.511 428.155, 243.481 428.160, 240.217 430.922 M 209.500 447.026 C 208.400 447.453, 203.600 448.355, 198.832 449.032 C 191.699 450.044, 190.076 450.603, 189.660 452.192 C 188.934 454.968, 191.029 455.391, 199.277 454.134 C 211.044 452.340, 213.889 451.290, 213.281 448.965 C 212.612 446.408, 211.958 446.073, 209.500 447.026" stroke="none" fill="#0f9697" fill-rule="evenodd"/></svg>